<svg aria-hidden="true" style="position: absolute; width: 0; height: 0; overflow: hidden;" version="1.1" xmlns="http://www.w3.org/2000/svg" xmlns:xlink="http://www.w3.org/1999/xlink">
<defs>
<symbol id="arrow-svg-1" viewBox="0 0 32 32">
<path d="M8.039 9.47c-0.433 0-0.783 0.351-0.783 0.783s0.351 0.783 0.783 0.783 0.783-0.351 0.783-0.783-0.351-0.784-0.783-0.784zM8.039 10.959c-0.389 0-0.705-0.316-0.705-0.705s0.316-0.705 0.705-0.705 0.705 0.316 0.705 0.705c0 0.389-0.316 0.705-0.705 0.705zM7.995 9.669h0.088v0.631h-0.088v-0.631zM7.998 10.21h0.631v0.088h-0.631v-0.088zM24.018 17.539c-4.34 3.965-8.679 7.93-13.019 11.891-1.787 1.633-4.451-1.018-2.657-2.657 3.862-3.527 7.724-7.054 11.585-10.581-3.882-3.649-7.762-7.303-11.644-10.954-1.768-1.661 0.896-4.315 2.658-2.655 4.359 4.1 8.717 8.199 13.076 12.299 0.721 0.681 0.739 1.984 0 2.657z"></path>
</symbol>
</defs>
</svg>
